<?xml version="1.0" standalone="no"?>
<!DOCTYPE svg PUBLIC "-//W3C//DTD SVG 20010904//EN"
 "http://www.w3.org/TR/2001/REC-SVG-20010904/DTD/svg10.dtd">
<svg version="1.0" xmlns="http://www.w3.org/2000/svg"
 width="310.000000pt" height="310.000000pt" viewBox="0 0 310.000000 310.000000"
 preserveAspectRatio="xMidYMid meet">
<metadata>
Created by potrace 1.14, written by Peter Selinger 2001-2017
</metadata>
<g transform="translate(0.000000,310.000000) scale(0.100000,-0.100000)"
fill="#000000" stroke="none">
<path d="M460 3088 c-180 -48 -262 -93 -332 -181 -56 -71 -77 -116 -104 -226
l-24 -96 0 -1035 0 -1035 25 -98 c30 -121 64 -187 135 -257 71 -70 134 -104
254 -135 l96 -25 1040 0 1040 0 96 25 c120 31 183 65 254 135 71 70 105 136
135 257 l25 98 0 1035 0 1035 -24 96 c-27 110 -48 155 -104 226 -70 88 -169
142 -335 182 -60 14 -2124 14 -2177 -1z m1220 -634 c15 -9 40 -39 56 -67 25
-44 35 -52 81 -66 128 -39 188 -122 200 -271 5 -71 11 -91 33 -120 40 -52 53
-93 48 -153 -6 -69 -34 -124 -84 -162 -25 -19 -51 -54 -72 -97 -18 -37 -55
-92 -82 -122 -38 -40 -50 -62 -50 -85 0 -39 -6 -36 225 -101 214 -61 250 -76
298 -124 72 -72 81 -102 85 -277 4 -154 3 -157 -19 -173 -21 -14 -105 -16
-849 -16 -744 0 -828 2 -849 16 -22 16 -23 19 -19 173 4 175 13 205 85 277 48
48 84 63 298 124 231 65 225 62 225 101 0 23 -12 45 -50 85 -27 30 -64 85 -82
122 -21 43 -47 78 -72 97 -50 38 -78 93 -84 162 -5 60 8 101 48 153 22 29 28
49 33 118 9 121 52 204 132 259 46 31 374 162 408 163 16 0 41 -7 57 -16z"/>
<path d="M1450 2286 c-224 -91 -250 -121 -250 -296 0 -92 -2 -97 -41 -122 -64
-40 -57 -137 12 -170 31 -14 44 -31 78 -102 25 -52 62 -108 96 -144 l55 -60 0
-95 c0 -72 -4 -98 -15 -107 -8 -7 -122 -43 -252 -81 -131 -38 -249 -77 -263
-87 -60 -45 -86 -123 -78 -232 l3 -45 755 0 755 0 3 45 c8 109 -18 187 -78
232 -14 10 -129 48 -255 84 -127 36 -240 72 -252 80 -21 13 -23 22 -23 110 l0
96 55 60 c34 37 70 91 95 144 34 71 47 87 78 102 70 33 77 129 13 170 -39 25
-41 30 -41 131 0 151 -36 201 -154 217 -50 7 -59 15 -96 82 -14 25 -29 47 -35
48 -5 2 -80 -26 -165 -60z"/>
</g>
</svg>
